PathFileType   4   (X/Y/Z)
DataRate	CameraRate	NumFrames	NumMarkers	Units	OrigDataRate	OrigDataStartFrame	OrigNumFrames
120.0	120.0	8	37	mm	120.0	1	96
Frame#	Time	midhip	hip_r	hip_l	knee_r	knee_l	ankle_r	ankle_l	midasis	asis_r	asis_l	psis_r	psis_l	epicondLat_r	epicondLat_l	epicondMed_r	epicondMed_l	malleolusLat_r	malleolusLat_l	malleolusMedv_r	malleolusMedv_l	neck	subclavicle_r	subclavicle_l	sternalnotch	xyphoidprocess	thighwand_r	thighwand_l	upperleg1_r	upperleg1_l	upperleg2_r	upperleg2_l	shankwand_r	shankwand_l	lowerleg1_r	lowerleg1_l	toe_r	toe_l
 	 	X1	Y1	Z1	X2	Y2	Z2	X3	Y3	Z3	X4	Y4	Z4	X5	Y5	Z5	X6	Y6	Z6	X7	Y7	Z7	X8	Y8	Z8	X9	Y9	Z9	X10	Y10	Z10	X11	Y11	Z11	X12	Y12	Z12	X13	Y13	Z13	X14	Y14	Z14	X15	Y15	Z15	X16	Y16	Z16	X17	Y17	Z17	X18	Y18	Z18	X19	Y19	Z19	X20	Y20	Z20	X21	Y21	Z21	X22	Y22	Z22	X23	Y23	Z23	X24	Y24	Z24	X25	Y25	Z25	X26	Y26	Z26	X27	Y27	Z27	X28	Y28	Z28	X29	Y29	Z29	X30	Y30	Z30	X31	Y31	Z31	X32	Y32	Z32	X33	Y33	Z33	X34	Y34	Z34	X35	Y35	Z35	X36	Y36	Z36	X37	Y37	Z37

	1	0.09167	512.575	591.756	-243.119	525.660	607.739	-191.337	511.079	599.532	-307.584	651.026	343.045	-224.879	428.169	307.979	-297.975	661.567	52.848	-221.775	196.308	133.074	-279.257	564.049	663.750	-259.434	574.968	669.896	-172.378	553.130	657.604	-346.490	432.182	690.696	-200.519	425.929	682.275	-283.666	660.762	341.961	-179.934	415.903	309.939	-344.340	637.739	341.758	-266.716	442.713	300.604	-257.567	663.076	53.261	-188.311	186.348	143.146	-308.508	660.106	53.475	-249.737	194.379	139.623	-245.131	514.121	1000.142	-259.957	603.680	931.508	-206.470	610.157	928.837	-299.166	591.610	943.907	-246.811	633.118	807.633	-244.874	717.481	472.270	-261.759	487.456	374.389	-417.563	648.683	491.468	-192.439	518.584	420.967	-338.586	672.721	407.493	-201.016	495.869	340.657	-319.107	698.072	149.944	-124.026	344.871	126.509	-278.014	677.691	196.543	-186.786	341.759	203.202	-294.051	750.671	40.053	-228.894	206.816	50.787	-265.279
	2	0.10000	524.711	593.928	-243.420	537.621	610.202	-191.543	523.231	601.456	-307.775	658.235	343.344	-224.817	450.907	306.756	-300.644	661.893	52.807	-221.764	215.380	138.794	-279.919	576.285	665.771	-259.847	587.080	672.332	-172.655	565.491	659.210	-347.039	444.814	693.374	-201.375	438.422	684.433	-284.422	667.603	341.965	-179.802	438.420	308.700	-346.950	643.459	341.718	-265.731	466.939	297.753	-260.404	663.368	53.178	-188.298	205.251	149.421	-308.914	660.233	53.318	-249.674	213.554	146.439	-245.547	526.484	1002.772	-259.645	616.310	933.754	-206.625	622.544	931.187	-299.248	604.130	946.295	-246.957	645.453	809.880	-245.205	727.733	470.861	-260.959	507.299	375.648	-420.178	659.270	490.920	-191.438	537.740	421.758	-341.098	680.275	406.245	-199.778	517.889	339.932	-322.057	700.558	148.982	-123.947	363.366	127.078	-280.992	681.238	195.780	-186.380	361.965	203.532	-296.053	750.720	39.829	-228.980	222.752	55.478	-267.969
	3	0.10833	536.627	596.255	-243.842	549.241	612.800	-191.870	535.104	603.619	-308.099	664.497	343.458	-224.293	474.077	306.245	-303.372	662.199	52.795	-221.624	235.815	144.307	-280.478	588.287	667.931	-260.311	598.915	674.833	-172.935	577.659	661.029	-347.686	457.351	696.356	-202.104	450.744	686.865	-285.053	673.339	341.811	-179.180	461.390	308.114	-349.627	648.639	341.497	-263.885	491.148	296.095	-263.226	663.510	53.092	-188.151	225.506	155.410	-309.231	660.392	53.338	-249.459	234.836	152.103	-245.975	538.724	1005.630	-259.502	628.812	936.239	-207.039	634.736	933.964	-299.715	616.489	948.910	-247.332	657.705	812.462	-246.129	737.415	468.995	-259.550	527.420	377.486	-422.828	669.055	490.474	-189.911	556.760	423.517	-343.556	687.175	404.730	-197.822	539.982	340.291	-324.857	702.311	148.034	-123.510	383.187	128.125	-283.794	684.211	195.185	-185.682	383.453	204.847	-297.882	750.697	39.719	-228.936	241.493	60.342	-271.508
	4	0.11667	548.374	598.776	-244.352	560.595	615.529	-192.297	546.786	606.036	-308.541	669.899	343.467	-223.408	497.516	306.557	-306.143	662.473	52.806	-221.384	257.548	149.346	-280.976	600.119	670.253	-260.791	610.524	677.405	-173.204	589.714	663.100	-348.378	469.760	699.617	-202.765	462.940	689.558	-285.600	678.128	341.602	-178.188	484.653	308.303	-352.354	653.893	341.327	-262.133	515.300	295.791	-266.037	663.534	53.012	-187.902	247.019	160.853	-309.489	660.412	53.565	-249.127	257.977	156.467	-246.445	550.794	1008.648	-259.481	641.165	938.966	-207.778	646.658	937.000	-300.498	628.704	951.777	-247.939	669.801	815.304	-247.423	746.435	466.812	-257.748	547.720	380.010	-425.495	677.665	490.132	-188.429	575.744	426.300	-345.654	693.446	403.485	-195.827	562.175	342.165	-327.481	703.489	147.149	-122.802	404.352	129.600	-286.523	686.453	194.779	-184.879	406.242	206.876	-299.808	750.624	39.672	-228.804	262.800	65.009	-275.747
	5	0.12500	560.035	601.507	-244.887	571.774	618.380	-192.793	558.380	608.717	-309.071	674.539	343.437	-222.281	521.077	307.729	-308.942	662.712	52.836	-221.070	280.522	153.620	-281.471	611.856	672.754	-261.241	621.969	680.049	-173.443	601.743	665.458	-349.039	482.052	703.094	-203.410	475.056	692.500	-286.116	682.131	341.413	-176.957	508.063	309.322	-355.117	659.740	341.210	-260.596	539.686	296.697	-269.011	663.470	52.944	-187.579	269.698	165.479	-309.728	660.306	53.912	-248.710	282.384	159.670	-246.935	562.691	1011.812	-259.486	653.443	941.972	-208.789	658.260	940.235	-301.534	640.796	954.894	-248.766	681.763	818.404	-248.939	754.731	464.426	-255.747	568.108	383.268	-428.166	685.006	489.849	-187.153	594.663	430.101	-347.477	699.359	403.006	-193.947	584.544	345.638	-330.139	704.230	146.360	-121.911	426.845	131.399	-289.336	687.979	194.522	-183.873	430.033	209.232	-301.971	750.519	39.662	-228.619	286.360	69.153	-280.446
	6	0.13333	571.718	604.451	-245.534	582.867	621.332	-193.322	569.979	611.658	-309.657	678.509	343.405	-221.021	544.629	309.726	-311.750	662.924	52.877	-220.710	304.675	156.864	-282.037	623.576	675.435	-261.614	633.321	682.751	-173.638	613.830	668.120	-349.590	494.172	706.741	-204.097	487.134	695.674	-286.652	685.483	341.278	-175.603	531.492	311.149	-357.895	665.362	341.524	-259.255	564.383	298.243	-272.558	663.353	52.890	-187.212	293.455	169.042	-310.002	660.121	54.337	-248.199	307.708	161.564	-247.534	574.488	1015.087	-259.612	665.733	945.337	-210.093	669.722	943.770	-302.778	652.785	958.220	-249.790	693.871	821.881	-250.659	762.295	461.896	-253.690	588.507	387.239	-430.828	691.824	489.964	-186.067	613.285	434.711	-349.240	704.969	403.127	-192.316	606.958	350.184	-333.126	704.659	145.688	-120.918	450.603	133.388	-292.387	688.964	194.388	-182.525	454.525	211.737	-304.389	750.399	39.672	-228.401	311.882	72.535	-285.346
	7	0.14167	583.202	607.634	-246.184	593.954	624.350	-193.854	581.660	614.833	-310.265	681.895	343.388	-219.719	568.066	312.448	-314.539	663.124	52.919	-220.328	329.934	158.886	-282.748	635.344	678.275	-261.878	644.647	685.477	-173.787	626.041	671.072	-349.969	506.126	710.494	-204.883	499.213	699.049	-287.252	688.290	341.201	-174.218	554.837	313.695	-360.663	670.238	341.925	-258.199	590.576	300.582	-276.439	663.217	52.843	-186.828	318.203	171.359	-310.371	659.937	54.896	-247.689	334.012	162.098	-248.368	586.266	1018.436	-259.927	678.072	948.972	-211.566	681.136	947.604	-304.158	664.697	961.689	-250.965	706.174	825.684	-252.595	769.164	459.224	-251.658	608.869	391.845	-433.465	697.807	490.028	-184.996	632.028	440.052	-351.397	709.767	403.252	-190.847	630.021	355.779	-336.623	704.873	145.138	-119.889	475.531	135.440	-295.777	689.673	194.375	-181.153	479.361	214.301	-307.051	750.283	39.686	-228.163	339.130	75.022	-290.219
	8	0.15000	594.682	610.919	-246.765	605.073	627.385	-194.368	593.460	618.195	-310.876	684.780	343.390	-218.443	591.304	315.759	-317.278	663.336	52.956	-219.946	356.219	159.593	-283.664	647.199	681.222	-262.008	655.983	688.173	-173.878	638.414	674.270	-350.138	517.858	714.318	-205.818	511.320	702.581	-287.939	690.636	341.170	-172.872	578.030	316.829	-363.393	672.126	342.296	-257.268	617.883	303.962	-280.184	663.092	52.801	-186.448	343.866	172.328	-310.894	659.873	55.317	-247.222	361.172	161.603	-249.335	597.941	1021.800	-260.325	690.354	952.664	-213.072	692.569	951.550	-305.676	676.553	965.220	-252.226	718.571	829.598	-254.677	775.407	456.379	-249.692	629.179	396.969	-436.054	702.605	489.448	-183.623	651.180	445.993	-353.783	712.096	402.670	-189.177	653.561	362.131	-340.250	704.931	144.702	-118.871	501.513	137.458	-299.523	689.473	194.306	-179.922	504.782	216.936	-309.964	750.184	39.694	-227.917	367.937	76.578	-294.900
